<svg width="20" height="20" viewBox="0 0 20 20" fill="none" xmlns="http://www.w3.org/2000/svg">
<g clip-path="url(#clip0)">
<path d="M19.996 7.64572C19.9939 7.62275 19.9893 7.60005 19.9823 7.57806C19.9777 7.55841 19.9714 7.53923 19.9633 7.52071C19.954 7.50263 19.9428 7.48552 19.93 7.4697C19.9171 7.45091 19.9023 7.4336 19.8857 7.41801C19.8803 7.41337 19.878 7.407 19.8723 7.40235L16.6665 4.91257V2.33213C16.6665 1.77984 16.2188 1.33208 15.6665 1.33208H12.0539L10.6075 0.209015C10.2502 -0.0696715 9.74909 -0.0696715 9.39177 0.209015L7.94501 1.33208H4.33249C3.78019 1.33208 3.33243 1.7798 3.33243 2.33213V4.91261L0.127624 7.40239C0.121959 7.40708 0.119615 7.4134 0.114303 7.41805C0.0977003 7.4336 0.0828167 7.45095 0.0699645 7.46974C0.0571513 7.48556 0.0459789 7.50263 0.0366425 7.52075C0.0285561 7.53923 0.0222277 7.55845 0.0176571 7.5781C0.0107037 7.59978 0.00613312 7.62213 0.00398458 7.64478C0.00398458 7.65178 0 7.65779 0 7.66478V18.9996C0.000468774 19.2117 0.069066 19.4179 0.195674 19.588C0.197666 19.591 0.198018 19.5947 0.200323 19.5973C0.202667 19.6 0.207667 19.603 0.210987 19.6066C0.398262 19.8531 0.689527 19.9983 0.999035 19.9997H19C19.3107 19.9987 19.6031 19.8528 19.7907 19.605C19.7933 19.6017 19.7973 19.6007 19.7996 19.5973C19.802 19.594 19.8023 19.591 19.8043 19.588C19.9309 19.4179 19.9995 19.2117 20 18.9997V7.66572C20 7.65873 19.9963 7.65271 19.996 7.64572ZM9.79944 0.735018C9.91586 0.642513 10.0807 0.642513 10.1971 0.735018L10.9661 1.33204H9.03272L9.79944 0.735018ZM1.08302 19.333L9.79948 12.5623C9.91597 12.47 10.0807 12.47 10.1972 12.5623L18.9159 19.333H1.08302ZM19.3333 18.8133L10.6075 12.0363C10.2501 11.7578 9.74917 11.7578 9.39177 12.0363L0.665659 18.8133V8.1734L6.12828 12.4153C6.27383 12.5282 6.4833 12.5017 6.59616 12.3561C6.70901 12.2106 6.68253 12.0011 6.53697 11.8882L0.987355 7.57904L3.33247 5.7566V8.3324C3.33247 8.51651 3.48174 8.66573 3.66581 8.66573C3.84992 8.66573 3.99915 8.51647 3.99915 8.3324V2.33209C3.99915 2.14798 4.14838 1.99875 4.33249 1.99875H15.6664C15.8505 1.99875 15.9997 2.14798 15.9997 2.33209V8.3324C15.9997 8.51651 16.1489 8.66573 16.3331 8.66573C16.5172 8.66573 16.6664 8.51647 16.6664 8.3324V5.7566L19.0115 7.57904L13.4522 11.8959C13.3566 11.9684 13.3073 12.0867 13.3231 12.2056C13.339 12.3246 13.4176 12.4258 13.5289 12.4707C13.6401 12.5156 13.767 12.4973 13.8609 12.4226L19.3332 8.1734V18.8133H19.3333Z" fill="black"/>
<path d="M14.0004 7.99961V6.66622C14.0004 4.45697 12.2094 2.66602 10.0002 2.66602C7.79095 2.66602 6 4.45697 6 6.66622C6 8.87547 7.79095 10.6664 10.0002 10.6664C10.1843 10.6664 10.3335 10.5172 10.3335 10.3331C10.3335 10.149 10.1843 9.99975 10.0002 9.99975C8.15917 9.99975 6.66671 8.50729 6.66671 6.66626C6.66671 4.82523 8.15917 3.33277 10.0002 3.33277C11.8412 3.33277 13.3337 4.82523 13.3337 6.66626V7.99965C13.3337 8.36787 13.0352 8.66636 12.667 8.66636C12.2987 8.66636 12.0003 8.36787 12.0003 7.99965V6.66626C12.0003 6.48215 11.851 6.33292 11.6669 6.33292C11.4828 6.33292 11.3336 6.48215 11.3336 6.66626C11.3336 7.40266 10.7366 7.99965 10.0002 7.99965C9.26379 7.99965 8.66681 7.40266 8.66681 6.66626C8.66681 5.92985 9.26379 5.33287 10.0002 5.33287C10.1843 5.33287 10.3335 5.18364 10.3335 4.99953C10.3335 4.81542 10.1843 4.6662 10.0002 4.6662C9.10504 4.6642 8.31754 5.25724 8.07221 6.11814C7.82689 6.97905 8.18343 7.89812 8.94518 8.3683C9.70694 8.83848 10.6883 8.74527 11.3479 8.14004C11.4205 8.845 12.0332 9.36917 12.7409 9.33171C13.4487 9.2942 14.0026 8.70831 14.0004 7.99961Z" fill="black"/>
</g>
<defs>
<clipPath id="clip0">
<rect width="20" height="20" fill="white"/>
</clipPath>
</defs>
</svg>
